<svg width="130" height="128" viewBox="0 0 130 128" fill="none" xmlns="http://www.w3.org/2000/svg">
<g clip-path="url(#clip0_608_5006)">
<rect x="2.54492" y="2.5" width="124" height="123" stroke="white" stroke-width="5"/>
<line x1="66.5449" x2="66.5449" y2="128" stroke="white" stroke-width="5"/>
<rect x="66.5449" y="2.5" width="60" height="123" rx="27.5" stroke="white" stroke-width="5"/>
<line x1="2.81269" y1="1.23223" x2="65.8127" y2="64.2322" stroke="white" stroke-width="5"/>
<path d="M127.752 2.70711L65.0449 65.5" stroke="white" stroke-width="5"/>
<line x1="66.166" y1="1.28161" x2="3.28227" y2="127.118" stroke="white" stroke-width="5"/>
<line y1="-2.5" x2="140.674" y2="-2.5" transform="matrix(0.447018 0.894525 0.894525 -0.447018 67.0449 -0.835938)" stroke="white" stroke-width="5"/>
<line x1="1.04492" y1="62.5" x2="96.0449" y2="62.5" stroke="white" stroke-width="5"/>
<path fill-rule="evenodd" clip-rule="evenodd" d="M65.0163 0V96.9998C65.0163 112.464 52.4802 125 37.0163 125H28.4395C12.9755 125 0.439453 112.464 0.439453 96.9997V94.5738H-1.56055V96.9997C-1.56055 113.568 11.8709 127 28.4395 127H37.0163C53.5848 127 67.0163 113.568 67.0163 96.9998V0H65.0163Z" fill="white"/>
<path d="M65.0163 0V-1.5H63.5163V0H65.0163ZM0.439453 94.5738H1.93945V93.0738H0.439453V94.5738ZM-1.56055 94.5738V93.0738H-3.06055V94.5738H-1.56055ZM67.0163 0H68.5163V-1.5H67.0163V0ZM63.5163 0V96.9998H66.5163V0H63.5163ZM63.5163 96.9998C63.5163 111.635 51.6518 123.5 37.0163 123.5V126.5C53.3087 126.5 66.5163 113.292 66.5163 96.9998H63.5163ZM37.0163 123.5H28.4395V126.5H37.0163V123.5ZM28.4395 123.5C13.8039 123.5 1.93945 111.635 1.93945 96.9997H-1.06055C-1.06055 113.292 12.1471 126.5 28.4395 126.5V123.5ZM1.93945 96.9997V94.5738H-1.06055V96.9997H1.93945ZM0.439453 93.0738H-1.56055V96.0738H0.439453V93.0738ZM-3.06055 94.5738V96.9997H-0.0605469V94.5738H-3.06055ZM-3.06055 96.9997C-3.06055 114.397 11.0425 128.5 28.4395 128.5V125.5C12.6993 125.5 -0.0605469 112.74 -0.0605469 96.9997H-3.06055ZM28.4395 128.5H37.0163V125.5H28.4395V128.5ZM37.0163 128.5C54.4132 128.5 68.5163 114.397 68.5163 96.9998H65.5163C65.5163 112.74 52.7564 125.5 37.0163 125.5V128.5ZM68.5163 96.9998V0H65.5163V96.9998H68.5163ZM67.0163 -1.5H65.0163V1.5H67.0163V-1.5Z" fill="white"/>
</g>
<defs>
<clipPath id="clip0_608_5006">
<rect width="129.045" height="128" rx="1" fill="white"/>
</clipPath>
</defs>
</svg>
